<svg width="36" height="36" viewBox="0 0 36 36" fill="none" xmlns="http://www.w3.org/2000/svg">
<path d="M20.9997 18V29.82C21.0597 30.27 20.9097 30.75 20.5647 31.065C20.4259 31.2041 20.2611 31.3144 20.0796 31.3896C19.8982 31.4649 19.7037 31.5037 19.5072 31.5037C19.3108 31.5037 19.1162 31.4649 18.9348 31.3896C18.7533 31.3144 18.5885 31.2041 18.4497 31.065L15.4347 28.05C15.2712 27.89 15.1469 27.6944 15.0714 27.4784C14.996 27.2625 14.9714 27.032 14.9997 26.805V18H14.9547L6.31471 6.93C6.07112 6.6173 5.96121 6.22089 6.00899 5.82739C6.05677 5.4339 6.25836 5.07532 6.56971 4.83C6.85471 4.62 7.16971 4.5 7.49971 4.5H28.4997C28.8297 4.5 29.1447 4.62 29.4297 4.83C29.7411 5.07532 29.9426 5.4339 29.9904 5.82739C30.0382 6.22089 29.9283 6.6173 29.6847 6.93L21.0447 18H20.9997Z" fill="#093166"/>
</svg>
