<svg width="32" height="32" viewBox="0 0 32 32" fill="none" xmlns="http://www.w3.org/2000/svg">
<path d="M16 14.2727C15.4213 14.2727 14.8664 14.5026 14.4572 14.9118C14.0481 15.3209 13.8182 15.8759 13.8182 16.4545C13.8182 17.0332 14.0481 17.5882 14.4572 17.9973C14.8664 18.4065 15.4213 18.6364 16 18.6364C16.5787 18.6364 17.1336 18.4065 17.5428 17.9973C17.9519 17.5882 18.1818 17.0332 18.1818 16.4545C18.1818 15.8759 17.9519 15.3209 17.5428 14.9118C17.1336 14.5026 16.5787 14.2727 16 14.2727ZM16 20.0909C15.0356 20.0909 14.1107 19.7078 13.4287 19.0258C12.7468 18.3439 12.3636 17.419 12.3636 16.4545C12.3636 15.4901 12.7468 14.5652 13.4287 13.8832C14.1107 13.2013 15.0356 12.8182 16 12.8182C16.9644 12.8182 17.8893 13.2013 18.5713 13.8832C19.2532 14.5652 19.6364 15.4901 19.6364 16.4545C19.6364 17.419 19.2532 18.3439 18.5713 19.0258C17.8893 19.7078 16.9644 20.0909 16 20.0909ZM16 11C12.3636 11 9.25818 13.2618 8 16.4545C9.25818 19.6473 12.3636 21.9091 16 21.9091C19.6364 21.9091 22.7418 19.6473 24 16.4545C22.7418 13.2618 19.6364 11 16 11Z" fill="black"/>
</svg>
