<svg width="64" height="64" viewBox="0 0 64 64" fill="none" xmlns="http://www.w3.org/2000/svg">
<path d="M20.6074 40.5781C20.6074 40.7188 20.5605 40.8242 20.4668 40.8945C20.373 40.9648 20.2441 41.0176 20.0801 41.0527C19.916 41.0879 19.6758 41.1055 19.3594 41.1055C19.0547 41.1055 18.8086 41.0879 18.6211 41.0527C18.4453 41.0176 18.3164 40.9648 18.2344 40.8945C18.1523 40.8242 18.1113 40.7188 18.1113 40.5781V38.9961C17.4199 39.7344 16.6465 40.3086 15.791 40.7188C14.9473 41.1289 14.0508 41.334 13.1016 41.334C12.2695 41.334 11.5137 41.2227 10.834 41C10.166 40.7891 9.5918 40.4785 9.11133 40.0684C8.64258 39.6582 8.27344 39.1543 8.00391 38.5566C7.74609 37.959 7.61719 37.2793 7.61719 36.5176C7.61719 35.627 7.79883 34.8535 8.16211 34.1973C8.52539 33.541 9.04688 32.9961 9.72656 32.5625C10.4062 32.1289 11.2383 31.8066 12.2227 31.5957C13.207 31.373 14.3145 31.2617 15.5449 31.2617H17.7246V30.0312C17.7246 29.4219 17.6602 28.8828 17.5312 28.4141C17.4023 27.9453 17.1914 27.5586 16.8984 27.2539C16.6172 26.9375 16.248 26.7031 15.791 26.5508C15.334 26.3867 14.7715 26.3047 14.1035 26.3047C13.3887 26.3047 12.7441 26.3926 12.1699 26.5684C11.6074 26.7324 11.1094 26.9199 10.6758 27.1309C10.2539 27.3301 9.89648 27.5176 9.60352 27.6934C9.32227 27.8574 9.11133 27.9395 8.9707 27.9395C8.87695 27.9395 8.79492 27.916 8.72461 27.8691C8.6543 27.8223 8.58984 27.752 8.53125 27.6582C8.48438 27.5645 8.44922 27.4473 8.42578 27.3066C8.40234 27.1543 8.39062 26.9902 8.39062 26.8145C8.39062 26.5215 8.4082 26.293 8.44336 26.1289C8.49023 25.9531 8.58984 25.7891 8.74219 25.6367C8.90625 25.4844 9.18164 25.3086 9.56836 25.1094C9.95508 24.8984 10.4004 24.7109 10.9043 24.5469C11.4082 24.3711 11.959 24.2305 12.5566 24.125C13.1543 24.0078 13.7578 23.9492 14.3672 23.9492C15.5039 23.9492 16.4707 24.0781 17.2676 24.3359C18.0645 24.5938 18.709 24.9746 19.2012 25.4785C19.6934 25.9707 20.0508 26.5859 20.2734 27.3242C20.4961 28.0625 20.6074 28.9238 20.6074 29.9082V40.5781ZM17.7246 33.3535H15.2461C14.4492 33.3535 13.7578 33.4238 13.1719 33.5645C12.5859 33.6934 12.0996 33.8926 11.7129 34.1621C11.3262 34.4199 11.0391 34.7363 10.8516 35.1113C10.6758 35.4746 10.5879 35.8965 10.5879 36.377C10.5879 37.1973 10.8457 37.8535 11.3613 38.3457C11.8887 38.8262 12.6211 39.0664 13.5586 39.0664C14.3203 39.0664 15.0234 38.873 15.668 38.4863C16.3242 38.0996 17.0098 37.5078 17.7246 36.7109V33.3535ZM40.5059 32.4395C40.5059 33.8105 40.3535 35.0469 40.0488 36.1484C39.7559 37.2383 39.3164 38.1699 38.7305 38.9434C38.1562 39.7168 37.4473 40.3086 36.6035 40.7188C35.7598 41.1289 34.793 41.334 33.7031 41.334C33.1992 41.334 32.7305 41.2812 32.2969 41.1758C31.875 41.082 31.459 40.9238 31.0488 40.7012C30.6387 40.4785 30.2285 40.1973 29.8184 39.8574C29.4082 39.5176 28.9746 39.1074 28.5176 38.627V40.5605C28.5176 40.6543 28.4941 40.7363 28.4473 40.8066C28.4004 40.877 28.3242 40.9355 28.2188 40.9824C28.1133 41.0176 27.9785 41.0469 27.8145 41.0703C27.6621 41.0938 27.4629 41.1055 27.2168 41.1055C26.9824 41.1055 26.7832 41.0938 26.6191 41.0703C26.4551 41.0469 26.3203 41.0176 26.2148 40.9824C26.1094 40.9355 26.0391 40.877 26.0039 40.8066C25.9688 40.7363 25.9512 40.6543 25.9512 40.5605V17.0762C25.9512 16.9824 25.9688 16.9004 26.0039 16.8301C26.0508 16.7598 26.127 16.7012 26.2324 16.6543C26.3496 16.6074 26.502 16.5723 26.6895 16.5488C26.877 16.5254 27.1113 16.5137 27.3926 16.5137C27.6855 16.5137 27.9258 16.5254 28.1133 16.5488C28.3008 16.5723 28.4473 16.6074 28.5527 16.6543C28.6582 16.7012 28.7344 16.7598 28.7812 16.8301C28.8281 16.9004 28.8516 16.9824 28.8516 17.0762V26.5508C29.3203 26.0703 29.7715 25.666 30.2051 25.3379C30.6504 25.0098 31.084 24.7461 31.5059 24.5469C31.9277 24.3359 32.3496 24.1836 32.7715 24.0898C33.1934 23.9961 33.6387 23.9492 34.1074 23.9492C35.2559 23.9492 36.2344 24.1777 37.043 24.6348C37.8633 25.0918 38.5254 25.707 39.0293 26.4805C39.5449 27.2422 39.9199 28.1387 40.1543 29.1699C40.3887 30.2012 40.5059 31.291 40.5059 32.4395ZM37.4473 32.7734C37.4473 31.9648 37.3828 31.1797 37.2539 30.418C37.1367 29.6562 36.9258 28.9824 36.6211 28.3965C36.3164 27.8105 35.9121 27.3418 35.4082 26.9902C34.9043 26.627 34.2773 26.4453 33.5273 26.4453C33.1523 26.4453 32.7832 26.498 32.4199 26.6035C32.0566 26.709 31.6875 26.8848 31.3125 27.1309C30.9375 27.377 30.5449 27.6934 30.1348 28.0801C29.7363 28.4668 29.3086 28.9531 28.8516 29.5391V35.8496C29.6484 36.8223 30.4102 37.5664 31.1367 38.082C31.8633 38.5859 32.6191 38.8379 33.4043 38.8379C34.1309 38.8379 34.752 38.6621 35.2676 38.3105C35.7832 37.959 36.1992 37.4961 36.5156 36.9219C36.8438 36.3359 37.0781 35.6855 37.2188 34.9707C37.3711 34.2441 37.4473 33.5117 37.4473 32.7734ZM56.2383 38.1523C56.2383 38.3516 56.2324 38.5273 56.2207 38.6797C56.209 38.8203 56.1855 38.9434 56.1504 39.0488C56.127 39.1426 56.0918 39.2305 56.0449 39.3125C56.0098 39.3828 55.916 39.4941 55.7637 39.6465C55.623 39.7871 55.377 39.9688 55.0254 40.1914C54.6738 40.4023 54.2754 40.5957 53.8301 40.7715C53.3965 40.9355 52.9219 41.0703 52.4062 41.1758C51.8906 41.2812 51.3574 41.334 50.8066 41.334C49.6699 41.334 48.6621 41.1465 47.7832 40.7715C46.9043 40.3965 46.166 39.8516 45.5684 39.1367C44.9824 38.4102 44.5312 37.5254 44.2148 36.4824C43.9102 35.4277 43.7578 34.2148 43.7578 32.8438C43.7578 31.2852 43.9453 29.9492 44.3203 28.8359C44.707 27.7109 45.2285 26.791 45.8848 26.0762C46.5527 25.3613 47.332 24.834 48.2227 24.4941C49.125 24.1426 50.0977 23.9668 51.1406 23.9668C51.6445 23.9668 52.1309 24.0137 52.5996 24.1074C53.0801 24.2012 53.5195 24.3242 53.918 24.4766C54.3164 24.6289 54.668 24.8047 54.9727 25.0039C55.2891 25.2031 55.5176 25.373 55.6582 25.5137C55.7988 25.6543 55.8926 25.7656 55.9395 25.8477C55.998 25.9297 56.0449 26.0293 56.0801 26.1465C56.1152 26.252 56.1387 26.375 56.1504 26.5156C56.1621 26.6562 56.168 26.832 56.168 27.043C56.168 27.5 56.1152 27.8223 56.0098 28.0098C55.9043 28.1855 55.7754 28.2734 55.623 28.2734C55.4473 28.2734 55.2422 28.1797 55.0078 27.9922C54.7852 27.793 54.498 27.5762 54.1465 27.3418C53.7949 27.1074 53.3672 26.8965 52.8633 26.709C52.3711 26.5098 51.7852 26.4102 51.1055 26.4102C49.7109 26.4102 48.6387 26.9492 47.8887 28.0273C47.1504 29.0938 46.7812 30.6465 46.7812 32.6855C46.7812 33.7051 46.875 34.6016 47.0625 35.375C47.2617 36.1367 47.5488 36.7754 47.9238 37.291C48.2988 37.8066 48.7559 38.1934 49.2949 38.4512C49.8457 38.6973 50.4727 38.8203 51.1758 38.8203C51.8438 38.8203 52.4297 38.7148 52.9336 38.5039C53.4375 38.293 53.8711 38.0645 54.2344 37.8184C54.6094 37.5605 54.9199 37.332 55.166 37.1328C55.4238 36.9219 55.623 36.8164 55.7637 36.8164C55.8457 36.8164 55.916 36.8398 55.9746 36.8867C56.0332 36.9336 56.0801 37.0156 56.1152 37.1328C56.1621 37.2383 56.1914 37.3789 56.2031 37.5547C56.2266 37.7188 56.2383 37.918 56.2383 38.1523Z" fill="#093166"/>
</svg>
