<svg width="64" height="64" viewBox="0 0 64 64" fill="none" xmlns="http://www.w3.org/2000/svg">
<path d="M21.2949 39.8047C21.2949 40.0273 21.2773 40.2148 21.2422 40.3672C21.207 40.5195 21.1602 40.6426 21.1016 40.7363C21.043 40.8301 20.9727 40.9004 20.8906 40.9473C20.8203 40.9824 20.7441 41 20.6621 41H8.7793C8.69727 41 8.62109 40.9824 8.55078 40.9473C8.48047 40.9004 8.41016 40.8301 8.33984 40.7363C8.28125 40.6426 8.23438 40.5195 8.19922 40.3672C8.16406 40.2148 8.14648 40.0273 8.14648 39.8047C8.14648 39.5938 8.16406 39.4121 8.19922 39.2598C8.23438 39.1074 8.27539 38.9844 8.32227 38.8906C8.38086 38.7852 8.44531 38.709 8.51562 38.6621C8.59766 38.6035 8.68555 38.5742 8.7793 38.5742H13.5254V21.2773L9.13086 23.8965C8.9082 24.0137 8.72656 24.084 8.58594 24.1074C8.45703 24.1309 8.35156 24.1074 8.26953 24.0371C8.1875 23.9551 8.12891 23.8262 8.09375 23.6504C8.07031 23.4746 8.05859 23.252 8.05859 22.9824C8.05859 22.7832 8.06445 22.6133 8.07617 22.4727C8.09961 22.332 8.12891 22.2148 8.16406 22.1211C8.19922 22.0273 8.24609 21.9453 8.30469 21.875C8.375 21.8047 8.46289 21.7344 8.56836 21.6641L13.8066 18.3066C13.8535 18.2715 13.9121 18.2422 13.9824 18.2188C14.0527 18.1953 14.1406 18.1719 14.2461 18.1484C14.3516 18.125 14.4746 18.1133 14.6152 18.1133C14.7559 18.1016 14.9316 18.0957 15.1426 18.0957C15.4238 18.0957 15.6582 18.1074 15.8457 18.1309C16.0332 18.1543 16.1797 18.1895 16.2852 18.2363C16.3906 18.2715 16.4609 18.3242 16.4961 18.3945C16.5312 18.4531 16.5488 18.5176 16.5488 18.5879V38.5742H20.6621C20.7559 38.5742 20.8438 38.6035 20.9258 38.6621C21.0078 38.709 21.0723 38.7852 21.1191 38.8906C21.1777 38.9844 21.2188 39.1074 21.2422 39.2598C21.2773 39.4121 21.2949 39.5938 21.2949 39.8047ZM39.4883 39.6992C39.4883 39.9102 39.4707 40.0977 39.4355 40.2617C39.4121 40.4258 39.3711 40.5664 39.3125 40.6836C39.2656 40.7891 39.1953 40.8711 39.1016 40.9297C39.0195 40.9766 38.9258 41 38.8203 41H26.252C26.0879 41 25.9414 40.9824 25.8125 40.9473C25.6953 40.9004 25.5898 40.8301 25.4961 40.7363C25.4141 40.6426 25.3496 40.5078 25.3027 40.332C25.2676 40.1562 25.25 39.9395 25.25 39.6816C25.25 39.4473 25.2559 39.2422 25.2676 39.0664C25.291 38.8906 25.332 38.7383 25.3906 38.6094C25.4492 38.4688 25.5195 38.334 25.6016 38.2051C25.6953 38.0645 25.8125 37.918 25.9531 37.7656L30.3652 33.0898C31.3848 32.0117 32.1992 31.0449 32.8086 30.1895C33.4297 29.334 33.9043 28.5547 34.2324 27.8516C34.5723 27.1484 34.7949 26.5098 34.9004 25.9355C35.0059 25.3613 35.0586 24.8223 35.0586 24.3184C35.0586 23.8145 34.9766 23.3398 34.8125 22.8945C34.6484 22.4375 34.4082 22.0391 34.0918 21.6992C33.7871 21.3594 33.4004 21.0898 32.9316 20.8906C32.4629 20.6914 31.9238 20.5918 31.3145 20.5918C30.5996 20.5918 29.9551 20.6914 29.3809 20.8906C28.8184 21.0898 28.3203 21.3066 27.8867 21.541C27.4648 21.7754 27.1074 21.9922 26.8145 22.1914C26.5332 22.3906 26.3223 22.4902 26.1816 22.4902C26.0996 22.4902 26.0234 22.4668 25.9531 22.4199C25.8945 22.373 25.8418 22.2969 25.7949 22.1914C25.7598 22.0859 25.7305 21.9453 25.707 21.7695C25.6836 21.5938 25.6719 21.3828 25.6719 21.1367C25.6719 20.9609 25.6777 20.8086 25.6895 20.6797C25.7012 20.5508 25.7188 20.4395 25.7422 20.3457C25.7773 20.252 25.8184 20.1641 25.8652 20.082C25.9121 20 26.0059 19.9004 26.1465 19.7832C26.2871 19.6543 26.5273 19.4844 26.8672 19.2734C27.2188 19.0625 27.6523 18.8574 28.168 18.6582C28.6953 18.4473 29.2695 18.2715 29.8906 18.1309C30.5234 17.9902 31.1855 17.9199 31.877 17.9199C32.9785 17.9199 33.9395 18.0781 34.7598 18.3945C35.5918 18.6992 36.2773 19.1211 36.8164 19.6602C37.3672 20.1992 37.7773 20.8262 38.0469 21.541C38.3164 22.2559 38.4512 23.0176 38.4512 23.8262C38.4512 24.5527 38.3867 25.2793 38.2578 26.0059C38.1289 26.7207 37.8535 27.5 37.4316 28.3438C37.0215 29.1758 36.4238 30.1074 35.6387 31.1387C34.8535 32.1582 33.8105 33.3359 32.5098 34.6719L28.9062 38.4336H38.8027C38.8965 38.4336 38.9844 38.4629 39.0664 38.5215C39.1602 38.5684 39.2363 38.6445 39.2949 38.75C39.3652 38.8555 39.4121 38.9902 39.4355 39.1543C39.4707 39.3066 39.4883 39.4883 39.4883 39.6992ZM57.5586 34.4961C57.5586 35.5391 57.377 36.4824 57.0137 37.3262C56.6504 38.1582 56.1289 38.873 55.4492 39.4707C54.7695 40.0684 53.9316 40.5312 52.9355 40.8594C51.9395 41.1758 50.8145 41.334 49.5605 41.334C48.7988 41.334 48.084 41.2695 47.416 41.1406C46.7598 41.0234 46.1738 40.8828 45.6582 40.7188C45.1426 40.543 44.7148 40.3672 44.375 40.1914C44.0352 40.0039 43.8184 39.8691 43.7246 39.7871C43.6426 39.7051 43.5781 39.623 43.5312 39.541C43.4844 39.459 43.4434 39.3594 43.4082 39.2422C43.373 39.125 43.3438 38.9844 43.3203 38.8203C43.3086 38.6445 43.3027 38.4336 43.3027 38.1875C43.3027 37.7656 43.3438 37.4727 43.4258 37.3086C43.5078 37.1445 43.625 37.0625 43.7773 37.0625C43.8828 37.0625 44.0879 37.1562 44.3926 37.3438C44.709 37.5312 45.1074 37.7363 45.5879 37.959C46.0801 38.1699 46.6484 38.3691 47.293 38.5566C47.9492 38.7441 48.6758 38.8379 49.4727 38.8379C50.2461 38.8379 50.9258 38.7383 51.5117 38.5391C52.0977 38.3398 52.5898 38.0586 52.9883 37.6953C53.3867 37.332 53.6855 36.9043 53.8848 36.4121C54.084 35.9082 54.1836 35.3633 54.1836 34.7773C54.1836 34.1328 54.0547 33.5527 53.7969 33.0371C53.5508 32.5215 53.1816 32.0762 52.6895 31.7012C52.209 31.3262 51.6113 31.0391 50.8965 30.8398C50.1934 30.6406 49.3906 30.541 48.4883 30.541H46.3262C46.2324 30.541 46.1387 30.5234 46.0449 30.4883C45.9629 30.4414 45.8867 30.3711 45.8164 30.2773C45.7578 30.1836 45.7051 30.0605 45.6582 29.9082C45.623 29.7559 45.6055 29.5566 45.6055 29.3105C45.6055 29.0879 45.623 28.9062 45.6582 28.7656C45.6934 28.6133 45.7402 28.4961 45.7988 28.4141C45.8691 28.3203 45.9453 28.2559 46.0273 28.2207C46.1094 28.1738 46.2031 28.1504 46.3086 28.1504H48.2949C49.0684 28.1504 49.7598 28.0508 50.3691 27.8516C50.9902 27.6523 51.5117 27.3652 51.9336 26.9902C52.3672 26.6152 52.6953 26.1699 52.918 25.6543C53.1523 25.127 53.2695 24.541 53.2695 23.8965C53.2695 23.4277 53.1934 22.9824 53.041 22.5605C52.8887 22.127 52.6602 21.752 52.3555 21.4355C52.0508 21.1191 51.6582 20.873 51.1777 20.6973C50.709 20.5098 50.1641 20.416 49.543 20.416C48.8633 20.416 48.2363 20.5215 47.6621 20.7324C47.0996 20.9316 46.5957 21.1484 46.1504 21.3828C45.7051 21.6172 45.3359 21.8398 45.043 22.0508C44.75 22.25 44.5449 22.3496 44.4277 22.3496C44.3457 22.3496 44.2695 22.3379 44.1992 22.3145C44.1406 22.2793 44.0879 22.2207 44.041 22.1387C44.0059 22.0449 43.9766 21.9219 43.9531 21.7695C43.9414 21.6055 43.9355 21.3945 43.9355 21.1367C43.9355 20.9609 43.9414 20.8086 43.9531 20.6797C43.9648 20.5391 43.9883 20.4219 44.0234 20.3281C44.0586 20.2227 44.0996 20.1289 44.1465 20.0469C44.1934 19.9648 44.2695 19.8711 44.375 19.7656C44.4922 19.6484 44.7207 19.4844 45.0605 19.2734C45.4004 19.0625 45.8164 18.8574 46.3086 18.6582C46.8125 18.4473 47.3867 18.2715 48.0312 18.1309C48.6875 17.9902 49.3906 17.9199 50.1406 17.9199C51.1953 17.9199 52.1211 18.0547 52.918 18.3242C53.7148 18.5938 54.377 18.9746 54.9043 19.4668C55.4434 19.959 55.8418 20.5508 56.0996 21.2422C56.3691 21.9219 56.5039 22.6777 56.5039 23.5098C56.5039 24.2246 56.4102 24.8926 56.2227 25.5137C56.0352 26.123 55.7598 26.668 55.3965 27.1484C55.0332 27.6172 54.5879 28.0215 54.0605 28.3613C53.5332 28.6895 52.9238 28.918 52.2324 29.0469V29.082C53.0176 29.1641 53.7324 29.3633 54.377 29.6797C55.0332 29.9844 55.5957 30.3711 56.0645 30.8398C56.5332 31.3086 56.8965 31.8594 57.1543 32.4922C57.4238 33.1133 57.5586 33.7812 57.5586 34.4961Z" fill="#093166"/>
</svg>
