<svg width="64" height="64" viewBox="0 0 64 64" fill="none" xmlns="http://www.w3.org/2000/svg">
<path d="M23.8281 39.0469C23.9115 39.276 23.9531 39.4635 23.9531 39.6094C23.9635 39.7448 23.9271 39.849 23.8438 39.9219C23.7604 39.9948 23.6198 40.0417 23.4219 40.0625C23.2344 40.0833 22.9792 40.0938 22.6562 40.0938C22.3333 40.0938 22.0729 40.0833 21.875 40.0625C21.6875 40.0521 21.5417 40.0312 21.4375 40C21.3438 39.9583 21.2708 39.9062 21.2188 39.8438C21.1771 39.7812 21.1354 39.7031 21.0938 39.6094L19.3594 34.6875H10.9531L9.29688 39.5469C9.26562 39.6406 9.22396 39.724 9.17188 39.7969C9.11979 39.8594 9.04167 39.9167 8.9375 39.9688C8.84375 40.0104 8.70312 40.0417 8.51562 40.0625C8.33854 40.0833 8.10417 40.0938 7.8125 40.0938C7.51042 40.0938 7.26042 40.0781 7.0625 40.0469C6.875 40.026 6.73958 39.9792 6.65625 39.9062C6.58333 39.8333 6.54688 39.7292 6.54688 39.5938C6.55729 39.4479 6.60417 39.2604 6.6875 39.0312L13.4688 20.25C13.5104 20.1354 13.5625 20.0417 13.625 19.9688C13.6979 19.8958 13.7969 19.8385 13.9219 19.7969C14.0573 19.7552 14.224 19.7292 14.4219 19.7188C14.6302 19.6979 14.8906 19.6875 15.2031 19.6875C15.5365 19.6875 15.8125 19.6979 16.0312 19.7188C16.25 19.7292 16.4271 19.7552 16.5625 19.7969C16.6979 19.8385 16.8021 19.901 16.875 19.9844C16.9479 20.0573 17.0052 20.151 17.0469 20.2656L23.8281 39.0469ZM15.125 22.4688H15.1094L11.625 32.5469H18.6562L15.125 22.4688ZM40.5469 34.2031C40.5469 34.8385 40.4635 35.4271 40.2969 35.9688C40.1406 36.5 39.9167 36.9792 39.625 37.4062C39.3333 37.8333 38.9792 38.2083 38.5625 38.5312C38.1562 38.8542 37.6927 39.125 37.1719 39.3438C36.6615 39.5625 36.1094 39.7292 35.5156 39.8438C34.9323 39.9479 34.2604 40 33.5 40H28.2188C27.9792 40 27.75 39.9219 27.5312 39.7656C27.3229 39.599 27.2188 39.3125 27.2188 38.9062V20.875C27.2188 20.4688 27.3229 20.1875 27.5312 20.0312C27.75 19.8646 27.9792 19.7812 28.2188 19.7812H32.8125C34.0208 19.7812 35.0104 19.8958 35.7812 20.125C36.5521 20.3542 37.1927 20.6875 37.7031 21.125C38.224 21.5625 38.6146 22.099 38.875 22.7344C39.1354 23.3698 39.2656 24.0885 39.2656 24.8906C39.2656 25.3698 39.2083 25.8281 39.0938 26.2656C38.9792 26.7031 38.8073 27.1094 38.5781 27.4844C38.3594 27.849 38.0781 28.1771 37.7344 28.4688C37.401 28.7604 37.0156 29 36.5781 29.1875C37.1302 29.2917 37.6458 29.4844 38.125 29.7656C38.6042 30.0365 39.0208 30.3854 39.375 30.8125C39.7396 31.2396 40.026 31.7396 40.2344 32.3125C40.4427 32.8854 40.5469 33.5156 40.5469 34.2031ZM36.5 25.1562C36.5 24.6667 36.4323 24.224 36.2969 23.8281C36.1615 23.4323 35.9479 23.099 35.6562 22.8281C35.3646 22.5469 34.9844 22.3333 34.5156 22.1875C34.0469 22.0417 33.4271 21.9688 32.6562 21.9688H29.875V28.5156H32.9375C33.6354 28.5156 34.1979 28.4271 34.625 28.25C35.0521 28.0625 35.4062 27.8177 35.6875 27.5156C35.9688 27.2031 36.1719 26.8438 36.2969 26.4375C36.4323 26.0208 36.5 25.5938 36.5 25.1562ZM37.7188 34.3594C37.7188 33.7552 37.6198 33.224 37.4219 32.7656C37.2344 32.3073 36.9531 31.9219 36.5781 31.6094C36.2135 31.2969 35.75 31.0625 35.1875 30.9062C34.6354 30.7396 33.9375 30.6562 33.0938 30.6562H29.875V37.7812H33.7812C34.3958 37.7812 34.9323 37.7083 35.3906 37.5625C35.849 37.4167 36.25 37.2031 36.5938 36.9219C36.9479 36.6302 37.224 36.2708 37.4219 35.8438C37.6198 35.4167 37.7188 34.9219 37.7188 34.3594ZM58.125 37.1406C58.125 37.3073 58.1198 37.4531 58.1094 37.5781C58.099 37.7031 58.0781 37.8125 58.0469 37.9062C58.026 38 57.9948 38.0833 57.9531 38.1562C57.9115 38.2292 57.8385 38.3177 57.7344 38.4219C57.6302 38.526 57.4115 38.6875 57.0781 38.9062C56.7448 39.1146 56.3281 39.3229 55.8281 39.5312C55.3385 39.7292 54.7708 39.8958 54.125 40.0312C53.4896 40.1771 52.7917 40.25 52.0312 40.25C50.7188 40.25 49.5312 40.0312 48.4688 39.5938C47.4167 39.1562 46.5156 38.5104 45.7656 37.6562C45.026 36.8021 44.4531 35.75 44.0469 34.5C43.651 33.2396 43.4531 31.7917 43.4531 30.1562C43.4531 28.4792 43.6667 26.9844 44.0938 25.6719C44.5312 24.3594 45.1406 23.25 45.9219 22.3438C46.7031 21.4271 47.6354 20.7292 48.7188 20.25C49.8125 19.7708 51.0208 19.5312 52.3438 19.5312C52.9271 19.5312 53.4948 19.5885 54.0469 19.7031C54.599 19.8073 55.1094 19.9427 55.5781 20.1094C56.0469 20.276 56.4635 20.4688 56.8281 20.6875C57.1927 20.9062 57.4427 21.0885 57.5781 21.2344C57.724 21.3698 57.8177 21.474 57.8594 21.5469C57.901 21.6198 57.9323 21.7083 57.9531 21.8125C57.9844 21.9062 58.0052 22.0208 58.0156 22.1562C58.0365 22.2917 58.0469 22.4531 58.0469 22.6406C58.0469 22.849 58.0365 23.026 58.0156 23.1719C57.9948 23.3177 57.9635 23.4427 57.9219 23.5469C57.8802 23.6406 57.8281 23.7135 57.7656 23.7656C57.7135 23.8073 57.6458 23.8281 57.5625 23.8281C57.4167 23.8281 57.2135 23.7292 56.9531 23.5312C56.6927 23.3229 56.3542 23.099 55.9375 22.8594C55.5312 22.6094 55.0312 22.3854 54.4375 22.1875C53.8542 21.9792 53.151 21.875 52.3281 21.875C51.4323 21.875 50.6146 22.0573 49.875 22.4219C49.1458 22.776 48.5208 23.3021 48 24C47.4792 24.6979 47.0729 25.5521 46.7812 26.5625C46.5 27.5625 46.3594 28.7083 46.3594 30C46.3594 31.2812 46.4948 32.4167 46.7656 33.4062C47.0469 34.3854 47.4427 35.2083 47.9531 35.875C48.474 36.5312 49.1094 37.0312 49.8594 37.375C50.6094 37.7083 51.4583 37.875 52.4062 37.875C53.2083 37.875 53.9062 37.776 54.5 37.5781C55.1042 37.3802 55.6146 37.1615 56.0312 36.9219C56.4583 36.6719 56.8073 36.4479 57.0781 36.25C57.349 36.0521 57.5625 35.9531 57.7188 35.9531C57.7917 35.9531 57.8542 35.9688 57.9062 36C57.9583 36.0312 58 36.0938 58.0312 36.1875C58.0625 36.2708 58.0833 36.3906 58.0938 36.5469C58.1146 36.7031 58.125 36.901 58.125 37.1406Z" fill="#093166"/>
</svg>
