<svg width="150" height="150" viewBox="0 0 150 150" fill="none" xmlns="http://www.w3.org/2000/svg">
<path d="M114.844 79.6186L66.7627 127.7C61.4882 132.974 54.3344 135.938 46.8752 135.938C39.4159 135.938 32.2622 132.974 26.9877 127.7C21.7132 122.425 18.75 115.272 18.75 107.812C18.75 100.353 21.7132 93.1994 26.9877 87.9249L95.3627 19.5499C97.1043 17.809 99.1718 16.4283 101.447 15.4865C103.722 14.5447 106.161 14.0602 108.623 14.0608C111.086 14.0614 113.524 14.547 115.799 15.4899C118.074 16.4328 120.141 17.8145 121.881 19.5561C123.622 21.2978 125.003 23.3653 125.945 25.6405C126.887 27.9158 127.371 30.3543 127.371 32.8168C127.37 35.2793 126.884 37.7176 125.941 39.9924C124.999 42.2672 123.617 44.334 121.875 46.0749L53.4502 114.5C51.6751 116.202 49.3024 117.132 46.8436 117.1C44.3847 117.069 42.0366 116.073 40.3052 114.327C38.5738 112.581 37.5977 110.224 37.5874 107.765C37.5772 105.306 38.5334 102.942 40.2502 101.181L89.0627 52.3686M53.5064 114.437L53.4439 114.5" stroke="url(#paint0_linear_101_471)" stroke-width="5" stroke-linecap="round" stroke-linejoin="round"/>
<defs>
<linearGradient id="paint0_linear_101_471" x1="73.0603" y1="14.0608" x2="73.0603" y2="135.938" gradientUnits="userSpaceOnUse">
<stop stop-color="#0046B0"/>
<stop offset="1" stop-color="#5AD7FF"/>
</linearGradient>
</defs>
</svg>
