<svg width="64" height="64" viewBox="0 0 64 64" fill="none" xmlns="http://www.w3.org/2000/svg">
<g clip-path="url(#clip0_270_213)">
<path d="M8.82227 34.4434C8.82227 34.5371 8.79883 34.6191 8.75195 34.6895C8.7168 34.7598 8.64648 34.8184 8.54102 34.8652C8.43555 34.9121 8.30078 34.9473 8.13672 34.9707C7.97266 34.9941 7.76758 35.0059 7.52148 35.0059C7.27539 35.0059 7.07031 34.9941 6.90625 34.9707C6.74219 34.9473 6.60742 34.9121 6.50195 34.8652C6.39648 34.8184 6.32031 34.7598 6.27344 34.6895C6.23828 34.6191 6.2207 34.5371 6.2207 34.4434L5.92188 17.6738C5.91016 17.5332 5.92773 17.4102 5.97461 17.3047C6.02148 17.1992 6.10352 17.1113 6.2207 17.041C6.34961 16.9707 6.51367 16.9238 6.71289 16.9004C6.92383 16.8652 7.19336 16.8477 7.52148 16.8477C7.83789 16.8477 8.0957 16.8652 8.29492 16.9004C8.50586 16.9355 8.66992 16.9883 8.78711 17.0586C8.91602 17.1289 9.00391 17.2168 9.05078 17.3223C9.09766 17.416 9.12109 17.5332 9.12109 17.6738L8.82227 34.4434ZM9.36719 39.1719C9.36719 39.5586 9.33789 39.8809 9.2793 40.1387C9.23242 40.3848 9.13281 40.5898 8.98047 40.7539C8.83984 40.9062 8.65234 41.0117 8.41797 41.0703C8.18359 41.1406 7.88477 41.1758 7.52148 41.1758C7.1582 41.1758 6.85352 41.1406 6.60742 41.0703C6.37305 41.0117 6.18555 40.9062 6.04492 40.7539C5.9043 40.5898 5.80469 40.3848 5.74609 40.1387C5.69922 39.8809 5.67578 39.5586 5.67578 39.1719C5.67578 38.7852 5.69922 38.4629 5.74609 38.2051C5.80469 37.9355 5.9043 37.7305 6.04492 37.5898C6.18555 37.4375 6.37305 37.332 6.60742 37.2734C6.85352 37.2031 7.1582 37.168 7.52148 37.168C7.88477 37.168 8.18359 37.2031 8.41797 37.2734C8.65234 37.332 8.83984 37.4375 8.98047 37.5898C9.13281 37.7305 9.23242 37.9355 9.2793 38.2051C9.33789 38.4629 9.36719 38.7852 9.36719 39.1719ZM41.8516 27.4824C41.8516 28.2793 41.7988 29.0938 41.6934 29.9258C41.5996 30.7578 41.4414 31.5664 41.2188 32.3516C40.9961 33.1367 40.7031 33.8809 40.3398 34.584C39.9766 35.2754 39.5312 35.8848 39.0039 36.4121C38.4766 36.9395 37.8613 37.3555 37.1582 37.6602C36.4668 37.9531 35.6699 38.0996 34.7676 38.0996C34.2871 38.0996 33.8418 38.0469 33.4316 37.9414C33.0215 37.8242 32.6582 37.6602 32.3418 37.4492C32.0254 37.2383 31.7559 36.9688 31.5332 36.6406C31.3223 36.3008 31.1758 35.9141 31.0938 35.4805C30.625 35.9492 30.168 36.3535 29.7227 36.6934C29.2891 37.0215 28.8613 37.291 28.4395 37.502C28.0176 37.7129 27.6016 37.8652 27.1914 37.959C26.793 38.0527 26.4004 38.0996 26.0137 38.0996C25.5098 38.0996 25.0645 38.0527 24.6777 37.959C24.291 37.8535 23.9453 37.707 23.6406 37.5195C23.3477 37.3203 23.0957 37.0801 22.8848 36.7988C22.6738 36.5176 22.498 36.2012 22.3574 35.8496C22.2168 35.498 22.1172 35.1113 22.0586 34.6895C22 34.2676 21.9707 33.8105 21.9707 33.3184C21.9707 32.8145 22.0117 32.2402 22.0938 31.5957C22.1758 30.9395 22.3105 30.2656 22.498 29.5742C22.6855 28.8828 22.9434 28.209 23.2715 27.5527C23.5996 26.8848 24.0039 26.293 24.4844 25.7773C24.9766 25.25 25.5566 24.8281 26.2246 24.5117C26.8926 24.1836 27.6719 24.0195 28.5625 24.0195C28.9375 24.0195 29.2949 24.0664 29.6348 24.1602C29.9863 24.2422 30.3203 24.377 30.6367 24.5645C30.9531 24.752 31.2578 24.9863 31.5508 25.2676C31.8438 25.5488 32.1426 25.8828 32.4473 26.2695L32.7461 24.7227C32.793 24.5586 32.8984 24.4355 33.0625 24.3535C33.2266 24.2715 33.5312 24.2305 33.9766 24.2305C34.1875 24.2305 34.3633 24.2422 34.5039 24.2656C34.6562 24.2891 34.7734 24.3242 34.8555 24.3711C34.9375 24.4062 34.9902 24.4531 35.0137 24.5117C35.0488 24.5703 35.0547 24.6406 35.0312 24.7227L33.4668 32.8086C33.2793 33.8281 33.3262 34.584 33.6074 35.0762C33.8887 35.5566 34.4219 35.7969 35.207 35.7969C35.6875 35.7969 36.1211 35.6797 36.5078 35.4453C36.8945 35.1992 37.2344 34.8711 37.5273 34.4609C37.8203 34.0508 38.0664 33.5762 38.2656 33.0371C38.4648 32.4863 38.6289 31.9121 38.7578 31.3145C38.8867 30.7051 38.9805 30.084 39.0391 29.4512C39.0977 28.8184 39.127 28.209 39.127 27.623C39.127 26.6035 38.9863 25.6367 38.7051 24.7227C38.4355 23.7969 37.9668 22.9883 37.2988 22.2969C36.6309 21.5938 35.7344 21.0371 34.6094 20.627C33.4961 20.2051 32.0957 19.9941 30.4082 19.9941C29.0254 19.9941 27.7949 20.1465 26.7168 20.4512C25.6387 20.7559 24.6895 21.1719 23.8691 21.6992C23.0488 22.2148 22.3457 22.8125 21.7598 23.4922C21.1738 24.1719 20.6758 24.8984 20.2656 25.6719C19.8672 26.4336 19.5449 27.2188 19.2988 28.0273C19.0527 28.8242 18.8652 29.5977 18.7363 30.3477C18.6074 31.0859 18.5195 31.7832 18.4727 32.4395C18.4375 33.0957 18.4199 33.6523 18.4199 34.1094C18.4199 35.4102 18.5664 36.5996 18.8594 37.6777C19.1641 38.7559 19.6855 39.6875 20.4238 40.4727C21.1621 41.2578 22.1523 41.8672 23.3945 42.3008C24.6367 42.7344 26.2012 42.9512 28.0879 42.9512C28.9434 42.9512 29.7168 42.8984 30.4082 42.793C31.0996 42.6992 31.6973 42.5938 32.2012 42.4766C32.7168 42.3711 33.1328 42.2656 33.4492 42.1602C33.7656 42.0664 33.9824 42.0195 34.0996 42.0195C34.1699 42.0195 34.2285 42.0371 34.2754 42.0723C34.334 42.1191 34.375 42.1836 34.3984 42.2656C34.4336 42.3594 34.457 42.4707 34.4688 42.5996C34.4805 42.7402 34.4863 42.9102 34.4863 43.1094C34.4863 43.2734 34.4805 43.4082 34.4688 43.5137C34.4688 43.6191 34.457 43.7129 34.4336 43.7949C34.4102 43.8887 34.375 43.9707 34.3281 44.041C34.293 44.1113 34.2402 44.1758 34.1699 44.2344C34.0996 44.293 33.8945 44.3809 33.5547 44.498C33.2266 44.6152 32.7754 44.7324 32.2012 44.8496C31.6387 44.9668 30.9766 45.0664 30.2148 45.1484C29.4531 45.2305 28.6152 45.2715 27.7012 45.2715C25.5098 45.2715 23.6523 45.0137 22.1289 44.498C20.6172 43.9824 19.3809 43.2441 18.4199 42.2832C17.4707 41.3223 16.7852 40.168 16.3633 38.8203C15.9414 37.4727 15.7305 35.9668 15.7305 34.3027C15.7305 33.6934 15.7598 32.9961 15.8184 32.2109C15.8887 31.4141 16.0117 30.5703 16.1875 29.6797C16.375 28.7773 16.6328 27.8633 16.9609 26.9375C17.2891 26 17.7109 25.0859 18.2266 24.1953C18.7539 23.3047 19.3867 22.4668 20.125 21.6816C20.875 20.8848 21.7539 20.1934 22.7617 19.6074C23.7812 19.0098 24.9414 18.541 26.2422 18.2012C27.5547 17.8613 29.0371 17.6914 30.6895 17.6914C32.6113 17.6914 34.2695 17.9258 35.6641 18.3945C37.0703 18.8516 38.2305 19.502 39.1445 20.3457C40.0586 21.1895 40.7383 22.2207 41.1836 23.4395C41.6289 24.6465 41.8516 25.9941 41.8516 27.4824ZM31.6562 28.625C31.2109 27.875 30.7539 27.3008 30.2852 26.9023C29.8164 26.5039 29.2832 26.3047 28.6855 26.3047C28.1934 26.3047 27.748 26.4277 27.3496 26.6738C26.9512 26.9082 26.6055 27.2188 26.3125 27.6055C26.0195 27.9805 25.7676 28.4082 25.5566 28.8887C25.3574 29.3691 25.1934 29.8613 25.0645 30.3652C24.9355 30.8691 24.8418 31.3613 24.7832 31.8418C24.7363 32.3105 24.7129 32.7266 24.7129 33.0898C24.7129 33.957 24.8652 34.625 25.1699 35.0938C25.4863 35.5625 26.0137 35.7969 26.752 35.7969C27.0332 35.7969 27.3203 35.75 27.6133 35.6562C27.9062 35.5508 28.2168 35.3984 28.5449 35.1992C28.873 34.9883 29.2188 34.7188 29.582 34.3906C29.957 34.0508 30.3672 33.6523 30.8125 33.1953L31.6562 28.625ZM61.3281 34.5664C61.3281 35.5039 61.1465 36.3594 60.7832 37.1328C60.4316 37.8945 59.9277 38.5508 59.2715 39.1016C58.6152 39.6523 57.8125 40.0918 56.8633 40.4199C55.9141 40.748 54.8535 40.9414 53.6816 41L53.2949 44.8145C53.2832 44.8848 53.2598 44.9492 53.2246 45.0078C53.2012 45.0781 53.1484 45.1309 53.0664 45.166C52.9844 45.2129 52.8672 45.248 52.7148 45.2715C52.5742 45.2949 52.3867 45.3066 52.1523 45.3066C51.8828 45.3066 51.666 45.2891 51.502 45.2539C51.3496 45.2305 51.2266 45.1953 51.1328 45.1484C51.0391 45.1133 50.9746 45.0547 50.9395 44.9727C50.916 44.9023 50.916 44.8203 50.9395 44.7266L51.3438 40.9297C50.7812 40.8594 50.2598 40.7715 49.7793 40.666C49.2988 40.5488 48.8711 40.4258 48.4961 40.2969C48.1211 40.168 47.7988 40.0332 47.5293 39.8926C47.2715 39.752 47.0781 39.623 46.9492 39.5059C46.832 39.377 46.75 39.2129 46.7031 39.0137C46.6562 38.8145 46.6328 38.5391 46.6328 38.1875C46.6328 37.9297 46.6445 37.7188 46.668 37.5547C46.6914 37.3789 46.7266 37.2383 46.7734 37.1328C46.8203 37.0156 46.8789 36.9395 46.9492 36.9043C47.0312 36.8574 47.125 36.834 47.2305 36.834C47.3828 36.834 47.5996 36.9219 47.8809 37.0977C48.1621 37.2617 48.5312 37.4492 48.9883 37.6602C49.457 37.8594 50.0254 38.0469 50.6934 38.2227C51.3613 38.3984 52.1641 38.4863 53.1016 38.4863C54.7656 38.4863 56.0254 38.1582 56.8809 37.502C57.748 36.8457 58.1816 35.9551 58.1816 34.8301C58.1816 34.1387 58.0234 33.5645 57.707 33.1074C57.3906 32.6387 56.9688 32.2402 56.4414 31.9121C55.9258 31.5723 55.334 31.2852 54.666 31.0508C54.0098 30.8047 53.3359 30.5586 52.6445 30.3125C51.9648 30.0664 51.291 29.7852 50.623 29.4688C49.9668 29.1523 49.3809 28.7598 48.8652 28.291C48.3496 27.8223 47.9336 27.2539 47.6172 26.5859C47.3008 25.9062 47.1426 25.0742 47.1426 24.0898C47.1426 23.3047 47.2773 22.5723 47.5469 21.8926C47.8164 21.2129 48.2207 20.6211 48.7598 20.1172C49.2988 19.6016 49.9785 19.1855 50.7988 18.8691C51.6191 18.541 52.5742 18.3418 53.6641 18.2715L54.0156 14.7207C54.0273 14.6504 54.0449 14.5859 54.0684 14.5273C54.1035 14.457 54.1621 14.3984 54.2441 14.3516C54.3262 14.3047 54.4375 14.2754 54.5781 14.2637C54.7188 14.2402 54.9121 14.2285 55.1582 14.2285C55.416 14.2285 55.627 14.2402 55.791 14.2637C55.9668 14.2871 56.0957 14.3281 56.1777 14.3867C56.2715 14.4336 56.3301 14.4922 56.3535 14.5625C56.377 14.6328 56.3887 14.7148 56.3887 14.8086L56.002 18.3242C56.3535 18.3594 56.7168 18.4238 57.0918 18.5176C57.4785 18.5996 57.8359 18.6992 58.1641 18.8164C58.5039 18.9219 58.8086 19.0449 59.0781 19.1855C59.3477 19.3145 59.5293 19.4258 59.623 19.5195C59.7285 19.6133 59.7988 19.7012 59.834 19.7832C59.8809 19.8652 59.916 19.959 59.9395 20.0645C59.9629 20.1699 59.9805 20.293 59.9922 20.4336C60.0156 20.5742 60.0273 20.7324 60.0273 20.9082C60.0273 21.1309 60.0156 21.3242 59.9922 21.4883C59.9805 21.6523 59.957 21.7812 59.9219 21.875C59.8867 21.9688 59.8398 22.0391 59.7812 22.0859C59.7227 22.1328 59.6523 22.1562 59.5703 22.1562C59.4414 22.1562 59.2363 22.0801 58.9551 21.9277C58.6738 21.7754 58.3164 21.6113 57.8828 21.4355C57.4609 21.2598 56.9688 21.0957 56.4062 20.9434C55.8438 20.791 55.2168 20.7148 54.5254 20.7148C53.7402 20.7148 53.0664 20.791 52.5039 20.9434C51.9531 21.0957 51.502 21.3125 51.1504 21.5938C50.8105 21.8633 50.5586 22.1914 50.3945 22.5781C50.2422 22.9648 50.166 23.3867 50.166 23.8438C50.166 24.5469 50.3242 25.1328 50.6406 25.6016C50.9688 26.0703 51.3906 26.4688 51.9062 26.7969C52.4336 27.125 53.0312 27.4062 53.6992 27.6406C54.3672 27.875 55.0469 28.1211 55.7383 28.3789C56.4414 28.625 57.127 28.9004 57.7949 29.2051C58.4629 29.5098 59.0547 29.8965 59.5703 30.3652C60.0977 30.834 60.5195 31.4082 60.8359 32.0879C61.1641 32.7559 61.3281 33.582 61.3281 34.5664Z" fill="#093166"/>
<line x1="1.2469" y1="62.2177" x2="62.2469" y2="2.21769" stroke="#FF0000" stroke-width="5"/>
</g>
<defs>
<clipPath id="clip0_270_213">
<rect width="64" height="64" fill="white"/>
</clipPath>
</defs>
</svg>
